<svg width="222" height="256" viewBox="0 0 222 256" fill="none" xmlns="http://www.w3.org/2000/svg">
<path d="M166 102.5V83.5C170.833 84.3333 183.4 85.8 195 85C206.6 84.2 214.5 94.3333 217 99.5C217.5 125 218.2 178.9 217 190.5C215.8 202.1 207.833 207.333 204 208.5H166V190.5H195V104.5L166 102.5Z" fill="#A8E5EC"/>
<rect x="28.5" y="64" width="134" height="166" fill="#F5C867"/>
<rect x="28.5" y="230" width="134" height="18" fill="#A8E5EC"/>
<path d="M5 125.145V73L6.98641 56.6121C6.99544 56.5376 7.01283 56.4644 7.03826 56.3937L11.4131 44.2414C11.4701 44.083 11.5662 43.9416 11.6924 43.8303L20 36.5L29.2595 27.7279C29.4156 27.5799 29.6154 27.4863 29.829 27.4608L50.156 25.0409C50.3789 25.0144 50.5863 24.9137 50.7449 24.7551L59 16.5L69.2884 7.68133C69.4268 7.5627 69.595 7.48416 69.7748 7.45419L81.3581 5.52365C81.4522 5.50796 81.5481 5.50583 81.6428 5.51731L97.7949 7.47514C97.9302 7.49154 98.0607 7.53542 98.1785 7.60409L115.672 17.8088C115.883 17.932 116.132 17.9735 116.372 17.9256L123.338 16.5324C123.445 16.5109 123.555 16.5072 123.664 16.5213L134.703 17.9612C134.897 17.9865 135.079 18.0681 135.227 18.196L145.695 27.2365C145.891 27.4056 146.144 27.4922 146.403 27.4782L164.102 26.5215C164.358 26.5077 164.609 26.5924 164.804 26.7581L174.214 34.7565C174.398 34.9135 174.52 35.1322 174.555 35.3719L176.449 48.1559C176.482 48.3788 176.439 48.6062 176.326 48.8014L167.288 64.499C167.11 64.8089 166.78 65 166.422 65H156.5H146C145.448 65 145 65.4477 145 66V70.5V98L143.565 111.871C143.525 112.255 143.268 112.582 142.903 112.711L135.554 115.304C135.212 115.425 134.831 115.351 134.56 115.111L126.838 108.299C126.623 108.109 126.5 107.836 126.5 107.549V96V82.7122C126.5 82.5723 126.471 82.4339 126.414 82.3061L120.7 69.4498C120.574 69.1662 120.323 68.9572 120.022 68.884L104.426 65.1032C104.154 65.0374 103.868 65.0881 103.635 65.243L98 69L86.3389 75.3165C86.1208 75.4346 85.8666 75.4675 85.6256 75.4087L65.6244 70.5303C65.5418 70.5102 65.4621 70.4796 65.3873 70.4393L59.222 67.1195C59.0763 67.0411 58.9134 67 58.7479 67H54.9257C54.6537 67 54.3934 67.1108 54.2049 67.3069L42.1674 79.8259C42.0574 79.9403 41.9217 80.0269 41.7716 80.0785L26.6749 85.268C26.2711 85.4068 26 85.7867 26 86.2137V132.5C26 133.052 25.5523 133.5 25 133.5H20H11.976C11.6748 133.5 11.3897 133.364 11.1999 133.131L5.22389 125.776C5.07906 125.597 5 125.375 5 125.145Z" fill="#FBE6CE"/>
<path d="M165 64.3345V84.7287M165 104.229H195C195.552 104.229 196 104.676 196 105.229V189.729C196 190.281 195.552 190.729 195 190.729H165M165 104.229V190.729M165 104.229V84.7287M165 190.729V209.229M165 84.7287H197C208.046 84.7287 217 93.683 217 104.729V189.229C217 200.274 208.046 209.229 197 209.229H165M165 209.229V229.729M26.5 229.729V198.729V133.729M26.5 229.729V240.229C26.5 245.752 30.9772 250.229 36.5 250.229H155C160.523 250.229 165 245.752 165 240.229V229.729M26.5 229.729H107.5M143 229.729H165M55.5 100.729V204.229M96 100.729V204.229M136 204.229V114.729M136 114.729C128.89 114.334 126.071 109.355 125.52 106.824C125.506 106.759 125.5 106.695 125.5 106.63V79.2287C125.891 68.6616 110.997 65.2107 103.017 64.7545C102.691 64.7358 102.383 64.8848 102.179 65.1404C98.7727 69.394 90.2923 76.7774 81 75.2287C67.2118 72.9306 61.5617 67.3169 56.311 65.0518C55.8513 64.8534 55.3245 65.0662 55.0842 65.5055C46.7478 80.7443 33.9258 84.639 27.5526 84.7472C26.9786 84.7569 26.5 85.2117 26.5 85.7858V133.729M136 114.729C143.2 115.129 145.333 109.562 145.5 106.729V64.1353C145.5 63.4472 146.177 62.9617 146.835 63.1631C151.156 64.4862 158.974 66.1646 164 64.7287C170.99 62.7316 186.954 40.2937 164.1 26.7873C164.036 26.7495 163.967 26.7181 163.896 26.696C160.355 25.5936 152.302 24.2986 146.409 27.2314C145.902 27.4837 145.277 27.3204 144.978 26.8393C141.066 20.5362 130.808 11.1287 116.619 17.4443C116.247 17.6097 115.812 17.555 115.508 17.2849C103.265 6.41445 74.2759 -6.71511 51.8259 24.2751C51.6262 24.5508 51.3043 24.7183 50.964 24.7069C36.9426 24.236 9.05412 31.1363 5.5 62.7285V125.158C5.5 125.205 5.50304 125.251 5.51011 125.297C6.21715 129.976 11.3744 138.107 26.5 133.729" stroke="black" stroke-width="10" stroke-linecap="round"/>
<circle cx="126" cy="230.229" r="5" fill="black"/>
</svg>
