<svg width="255" height="255" viewBox="0 0 255 255" fill="none" xmlns="http://www.w3.org/2000/svg">
<rect x="7" y="74" width="107" height="146" fill="#9EA5BC"/>
<path d="M33.5 143.5C29.9 167.5 48.6667 174.167 58.5 174.5C85.3 180.1 90.6667 158.167 90 146.5C88.6667 145.167 86.2 142.5 87 142.5C88 142.5 92.5 125.5 90 122.5C88 120.1 79.1667 122.167 75 123.5C71.8333 115 64.4 97.8 60 97C55.6 96.2 50.1667 114.333 48 123.5C45.1667 123.333 38.3 122.9 33.5 122.5C28.7 122.1 31.5 136.333 33.5 143.5Z" fill="#F9DB99"/>
<path d="M118 102H239C243.418 102 247 105.582 247 110V220H118V102Z" fill="#FDF3DD"/>
<circle cx="151" cy="138" r="10" fill="#C1E9C0"/>
<circle cx="200" cy="138" r="10" fill="#C1E9C0"/>
<rect x="181" y="79" width="45" height="19" fill="#C1E9C0"/>
<path d="M115.5 74H7.99997C7.16664 61.5 16.5 36.5 60.5 36.5C104.5 36.5 115.5 61.5 115.5 74Z" fill="#E7E9EE"/>
<rect x="20" y="223" width="19" height="25" fill="#E7E9EE"/>
<rect x="81" y="223" width="19" height="25" fill="#E7E9EE"/>
<rect x="134" y="223" width="19" height="25" fill="#E7E9EE"/>
<rect x="214" y="223" width="19" height="25" fill="#E7E9EE"/>
<path d="M39.5076 78.5C42.269 78.5 44.5076 76.2614 44.5076 73.5C44.5076 70.7386 42.269 68.5 39.5076 68.5V78.5ZM116.008 73.5H121.008V73.4412L121.006 73.3824L116.008 73.5ZM81.5076 68.5C78.7462 68.5 76.5076 70.7386 76.5076 73.5C76.5076 76.2614 78.7462 78.5 81.5076 78.5V68.5ZM137.508 170C134.746 170 132.508 172.239 132.508 175C132.508 177.761 134.746 180 137.508 180V170ZM204.008 180C206.769 180 209.008 177.761 209.008 175C209.008 172.239 206.769 170 204.008 170V180ZM137.508 191.5C134.746 191.5 132.508 193.739 132.508 196.5C132.508 199.261 134.746 201.5 137.508 201.5V191.5ZM204.008 201.5C206.769 201.5 209.008 199.261 209.008 196.5C209.008 193.739 206.769 191.5 204.008 191.5V201.5ZM55.6052 190.535C55.6244 193.296 57.8785 195.519 60.6399 195.5C63.4012 195.481 65.6242 193.227 65.6049 190.465L55.6052 190.535ZM60.6051 156.5L65.605 156.524L65.6051 156.512V156.5H60.6051ZM30.6051 121L29.6171 116.099L30.6051 121ZM46.8827 124.5L44.3114 128.788L46.8827 124.5ZM60.5076 156.5H55.5076V156.512L55.5077 156.524L60.5076 156.5ZM90.5076 121L91.4956 116.099L90.5076 121ZM74.23 124.5L76.8013 128.788L74.23 124.5ZM57.6137 133.077L54.1546 136.687L57.6137 133.077ZM63.499 133.077L66.958 136.687L63.499 133.077ZM208.008 72.5V15H198.008V72.5H208.008ZM193.008 0H70.0076V10H193.008V0ZM55.0076 15V36H65.0076V15H55.0076ZM184.508 96.5V86H174.508V96.5H184.508ZM189.508 81H216.008V71H189.508V81ZM221.008 86V96.5H231.008V86H221.008ZM119.508 105H229.508V95H119.508V105ZM244.508 120V212.5H254.508V120H244.508ZM10.0076 212.5V73.5H0.00758648V212.5H10.0076ZM5.00759 78.5H39.5076V68.5H5.00759V78.5ZM239.508 217.5H116.008V227.5H239.508V217.5ZM121.008 222.5V73.5H111.008V222.5H121.008ZM116.008 68.5H81.5076V78.5H116.008V68.5ZM137.508 180H204.008V170H137.508V180ZM137.508 201.5H204.008V191.5H137.508V201.5ZM18.0076 217.5H15.0076V227.5H18.0076V217.5ZM13.0076 222.5V240H23.0076V222.5H13.0076ZM28.0076 255H31.5076V245H28.0076V255ZM116.008 217.5H41.5076V227.5H116.008V217.5ZM41.5076 217.5H18.0076V227.5H41.5076V217.5ZM46.5076 240V222.5H36.5076V240H46.5076ZM74.0076 222.5V240H84.0076V222.5H74.0076ZM107.508 240V222.5H97.5076V240H107.508ZM126.508 222.5V240H136.508V222.5H126.508ZM160.008 240V222.5H150.008V240H160.008ZM207.008 222.5V240H217.008V222.5H207.008ZM240.508 240V222.5H230.508V240H240.508ZM89.0076 255H92.5076V245H89.0076V255ZM141.508 255H145.008V245H141.508V255ZM222.008 255H225.508V245H222.008V255ZM10.0062 73.3824C9.86871 67.5387 11.9745 59.6091 18.9843 53.102C25.9844 46.6039 38.4509 41 60.0076 41V31C36.7643 31 21.5641 37.0627 12.1809 45.773C2.80738 54.4743 -0.186866 65.2946 0.00896978 73.6176L10.0062 73.3824ZM121.006 73.3824C120.81 65.0608 117.307 54.3332 107.725 45.7192C98.1157 37.08 82.887 31 60.0076 31V41C81.1282 41 93.7328 46.5867 101.04 53.1558C108.375 59.7502 110.871 67.7726 111.009 73.6176L121.006 73.3824ZM65.6049 190.465L65.5075 176.465L55.5077 176.535L55.6052 190.535L65.6049 190.465ZM59.9749 171.528C56.1497 171.938 50.0139 171.311 44.9788 167.684C40.2223 164.258 35.6051 157.546 35.6051 144H25.6051C25.6051 160.097 31.2724 170.135 39.1339 175.798C46.7167 181.26 55.5322 182.062 61.0403 181.472L59.9749 171.528ZM65.5075 176.524L65.605 156.524L55.6051 156.476L55.5077 176.476L65.5075 176.524ZM65.6051 156.5V140.183H55.6051V156.5H65.6051ZM35.6051 144C35.6051 144.033 35.6002 144.391 35.3555 144.883C35.0873 145.422 34.6584 145.863 34.1805 146.142C33.7536 146.391 33.4378 146.426 33.4109 146.429C33.3826 146.432 33.5058 146.417 33.8262 146.461L35.189 136.554C33.6081 136.337 31.2655 136.265 29.1401 137.505C26.5523 139.015 25.6051 141.628 25.6051 144H35.6051ZM33.8262 146.461C35.9725 146.756 40.0654 148.542 44.9396 151.443C49.6069 154.22 54.2492 157.569 57.3033 160.255L63.9069 152.745C60.3112 149.583 55.1503 145.882 50.054 142.849C45.1646 139.939 39.5337 137.152 35.189 136.554L33.8262 146.461ZM39.0278 139.371C37.8359 136.85 36.0126 132.211 34.9711 128.22C34.4353 126.166 34.2099 124.665 34.2201 123.819C34.2255 123.37 34.297 123.551 34.0816 124.008C33.7701 124.67 32.9557 125.627 31.5931 125.901L29.6171 116.099C27.2894 116.568 25.7918 118.139 25.0339 119.749C24.372 121.155 24.2338 122.618 24.2208 123.699C24.1943 125.911 24.698 128.456 25.2951 130.745C26.5196 135.437 28.5776 140.663 29.9874 143.645L39.0278 139.371ZM31.5931 125.901C35.8572 125.042 40.051 126.234 44.3114 128.788L49.454 120.212C43.944 116.908 37.1777 114.575 29.6171 116.099L31.5931 125.901ZM44.3114 128.788C47.828 130.897 51.111 133.771 54.1546 136.687L61.0728 129.467C57.8824 126.41 53.9517 122.909 49.454 120.212L44.3114 128.788ZM51.7573 125.613C53.068 119.87 54.7219 113.362 56.7976 108.351C57.8437 105.826 58.8711 103.998 59.802 102.881C60.7648 101.726 61.0368 102 60.6051 102V92C56.7733 92 53.9581 94.2739 52.1207 96.4782C50.2512 98.7209 48.7653 101.612 47.5589 104.524C45.1296 110.388 43.3223 117.63 42.0081 123.387L51.7573 125.613ZM65.6051 191V176.5H55.6051V191H65.6051ZM60.0724 181.472C65.5805 182.062 74.396 181.26 81.9788 175.798C89.8402 170.135 95.5076 160.097 95.5076 144H85.5076C85.5076 157.546 80.8904 164.258 76.1339 167.684C71.0988 171.311 64.963 171.938 61.1377 171.528L60.0724 181.472ZM65.605 176.476L65.5075 156.476L55.5077 156.524L55.6051 176.524L65.605 176.476ZM65.5076 156.5V140.183H55.5076V156.5H65.5076ZM95.5076 144C95.5076 141.628 94.5604 139.015 91.9725 137.505C89.8472 136.265 87.5045 136.337 85.9237 136.554L87.2865 146.461C87.6068 146.417 87.73 146.432 87.7018 146.429C87.6749 146.426 87.3591 146.391 86.9321 146.142C86.4543 145.863 86.0254 145.422 85.7572 144.883C85.5125 144.391 85.5076 144.033 85.5076 144H95.5076ZM85.9237 136.554C81.579 137.152 75.9481 139.939 71.0587 142.849C65.9624 145.882 60.8015 149.583 57.2058 152.745L63.8094 160.255C66.8634 157.569 71.5058 154.22 76.1731 151.443C81.0473 148.542 85.1402 146.756 87.2865 146.461L85.9237 136.554ZM91.1253 143.645C92.535 140.663 94.5931 135.437 95.8176 130.745C96.4147 128.456 96.9184 125.911 96.8919 123.699C96.8789 122.618 96.7407 121.155 96.0788 119.749C95.3209 118.139 93.8233 116.568 91.4956 116.099L89.5196 125.901C88.157 125.627 87.3425 124.67 87.0311 124.008C86.8157 123.551 86.8872 123.37 86.8926 123.819C86.9027 124.665 86.6774 126.166 86.1416 128.22C85.1001 132.211 83.2768 136.85 82.0849 139.371L91.1253 143.645ZM91.4956 116.099C83.935 114.575 77.1686 116.908 71.6587 120.212L76.8013 128.788C81.0617 126.234 85.2554 125.042 89.5196 125.901L91.4956 116.099ZM71.6587 120.212C67.161 122.909 63.2302 126.41 60.0399 129.467L66.958 136.687C70.0017 133.771 73.2847 130.897 76.8013 128.788L71.6587 120.212ZM79.1046 123.387C77.7904 117.63 75.9831 110.388 73.5538 104.524C72.3474 101.612 70.8614 98.7209 68.992 96.4782C67.1546 94.2739 64.3394 92 60.5076 92V102C60.0758 102 60.3478 101.726 61.3107 102.881C62.2416 103.998 63.269 105.826 64.3151 108.351C66.3908 113.362 68.0447 119.87 69.3553 125.613L79.1046 123.387ZM65.6051 140.183C65.6051 136.196 64.0271 132.297 61.0728 129.467L54.1546 136.687C55.065 137.559 55.6051 138.817 55.6051 140.183H65.6051ZM230.508 240C230.508 242.761 228.269 245 225.508 245V255C233.792 255 240.508 248.284 240.508 240H230.508ZM150.008 240C150.008 242.761 147.769 245 145.008 245V255C153.292 255 160.008 248.284 160.008 240H150.008ZM126.508 240C126.508 248.284 133.223 255 141.508 255V245C138.746 245 136.508 242.761 136.508 240H126.508ZM74.0076 240C74.0076 248.284 80.7233 255 89.0076 255V245C86.2462 245 84.0076 242.761 84.0076 240H74.0076ZM13.0076 240C13.0076 248.284 19.7233 255 28.0076 255V245C25.2462 245 23.0076 242.761 23.0076 240H13.0076ZM207.008 240C207.008 248.284 213.723 255 222.008 255V245C219.246 245 217.008 242.761 217.008 240H207.008ZM0.00758648 212.5C0.00758648 220.784 6.72332 227.5 15.0076 227.5V217.5C12.2462 217.5 10.0076 215.261 10.0076 212.5H0.00758648ZM244.508 212.5C244.508 215.261 242.269 217.5 239.508 217.5V227.5C247.792 227.5 254.508 220.784 254.508 212.5H244.508ZM229.508 105C237.792 105 244.508 111.716 244.508 120H254.508C254.508 106.193 243.315 95 229.508 95V105ZM97.5076 240C97.5076 242.761 95.269 245 92.5076 245V255C100.792 255 107.508 248.284 107.508 240H97.5076ZM184.508 86C184.508 83.2386 186.746 81 189.508 81V71C181.223 71 174.508 77.7157 174.508 86H184.508ZM70.0076 0C61.7233 0 55.0076 6.71573 55.0076 15H65.0076C65.0076 12.2386 67.2462 10 70.0076 10V0ZM216.008 81C218.769 81 221.008 83.2386 221.008 86H231.008C231.008 77.7157 224.292 71 216.008 71V81ZM31.5076 255C39.7919 255 46.5076 248.284 46.5076 240H36.5076C36.5076 242.761 34.269 245 31.5076 245V255ZM65.5076 140.183C65.5076 138.817 66.0477 137.559 66.958 136.687L60.0399 129.467C57.0855 132.297 55.5076 136.196 55.5076 140.183H65.5076ZM208.008 15C208.008 6.71573 201.292 0 193.008 0V10C195.769 10 198.008 12.2386 198.008 15H208.008Z" fill="black"/>
<circle cx="60.5076" cy="73.5" r="3.5" fill="black"/>
<path d="M169.008 137.5C169.008 147.165 161.173 155 151.508 155C141.843 155 134.008 147.165 134.008 137.5C134.008 127.835 141.843 120 151.508 120C161.173 120 169.008 127.835 169.008 137.5ZM142.758 137.5C142.758 142.332 146.675 146.25 151.508 146.25C156.34 146.25 160.258 142.332 160.258 137.5C160.258 132.668 156.34 128.75 151.508 128.75C146.675 128.75 142.758 132.668 142.758 137.5Z" fill="black"/>
<path d="M217.008 137.5C217.008 147.165 209.173 155 199.508 155C189.843 155 182.008 147.165 182.008 137.5C182.008 127.835 189.843 120 199.508 120C209.173 120 217.008 127.835 217.008 137.5ZM190.758 137.5C190.758 142.332 194.675 146.25 199.508 146.25C204.34 146.25 208.258 142.332 208.258 137.5C208.258 132.668 204.34 128.75 199.508 128.75C194.675 128.75 190.758 132.668 190.758 137.5Z" fill="black"/>
</svg>
