<svg width="252" height="260" viewBox="0 0 252 260" fill="none" xmlns="http://www.w3.org/2000/svg">
<circle cx="126" cy="131" r="124" fill="#A8E5EC"/>
<path d="M6.5 108.5C6.5 87.3001 32.1667 52.6667 45 38.0001L51.5 42.0001L55 48.0001L59 55.0001L58 65.5001L53.5 70.5001L45 78.0001L40.5 87.0001L35.5 95.5001L28 102.5L23.5 107.5L28 114V119.5L23.5 121.5H13L8 118L6.5 108.5Z" fill="#C1E9C0"/>
<path d="M23.5 138.5L4.5 145.5C5.3 177.9 35.5 212.333 50.5 225.5L53 213.5L55.5 202L62 197.5L66.5 193L68 184L65 176.5V168V160.5L58.5 159L45 155.5L34 146.5L23.5 138.5Z" fill="#C1E9C0"/>
<path d="M187 176.5L194 169.5L198.5 175L197 184L194 194V202L186 207H178.5V200L182 189L183.5 183L187 176.5Z" fill="#C1E9C0"/>
<path d="M84 95.5001L91.5 85.5001H105L113 86.5001L116.5 91.5001L122 96.5001L129.5 98.0001L133 93.5001H140.5L148.5 98.0001L155.5 104.5L161.5 118L165 127.5L174 133L182 138.5L176 145.5L167 153L165 166.5V178L160 187.5L155.5 193L152.5 200C151.833 202.333 149.1 208.1 143.5 212.5C137.9 216.9 131.833 214.333 129.5 212.5L124 198.5L118.5 179V163L113 151L108 144H102L86.5 145.5L75 136.5L68 119.5L75 105.5L84 95.5001Z" fill="#C1E9C0"/>
<path d="M130.5 12.5001L136.5 7.00008C172.5 2.60008 211.5 39.1667 226.5 58.0001L240 84.5001L245.5 102.5L238.5 110V120L232.5 122.5L230.5 118L227.5 106.5L222 99.5001L216 93.5001L204 92.5001L205.5 99.5001L198.5 106.5L187.5 112.5H180.5L176 106.5L172 98.0001L168 91.5001V85.5001L161.5 79.0001L151.5 73.5001L133 66.5001H110.5L99 68.0001L91.5 73.5001L88.5 80.5001L86 77.0001L75 62.0001L84 40.5001L91.5 36.5001L109.5 30.5001L122 23.5001L130.5 12.5001Z" fill="#C1E9C0"/>
<path d="M48.5 40.5C53.8333 44.1667 63.1 54.5 57.5 66.5C53 69.6667 43.3 78.1 40.5 86.5C37 97 23.5 106 22.5 106.5C21.5 107 32.5 119 29 120C25.5 121 16 122.5 14.5 122.5C13.3 122.5 9.33333 117.333 7 115M133 9L118.5 27.5L84.5 39L75.5 62L88.5 81.5M88.5 81.5C91 75.1667 98.9 63.3 110.5 66.5M88.5 81.5C88.1353 82.4947 87.6782 83.6992 87.1642 85M241 106C239.5 108.167 236.8 113.4 238 117C239.2 120.6 234.5 122.167 232 122.5L226.5 103.5L217 94L203 92L205 99.5C199.833 104.333 187.9 114.1 181.5 114.5L168 92V85L159 76.5L149.5 71.5M87.1642 85C85.0946 90.238 82.1021 97.0387 80.5 98C78 99.5 54 123.5 80.5 141.5C84.5 142.833 93.1 145.3 95.5 144.5C98.5 143.5 110.5 142 110.5 144.5C110.5 147 113.5 156 115 157.5C116.5 159 122.5 163 117.5 181.5L129 212C130.5 214.333 135.5 217.6 143.5 212C151.5 206.4 152.167 202.333 151.5 201C152 198.667 153.6 193.6 156 192C159 190 162 181 166 174.5C164.333 169 162.8 156.5 170 150.5C177.2 144.5 181.667 138.667 183 136.5C177 135 164.4 129.8 162 121C159 110 153.5 102 148.5 97C144.5 93 136.5 92 133 92C131.833 96.1667 127.8 102.7 121 95.5C117.608 91.9088 115.968 90.5467 115.221 89.7935C113.277 87.8324 112.761 85 110 85H87.1642ZM9 143L22.5 138.5C28.8333 143.167 42 153 44 155C46.5 157.5 63.5 157.5 65 162C66.5 166.5 63.5 174.5 65 176.5C66.5 178.5 71.5 191 62.5 196C53.5 201 54 201.5 50.5 226M198.5 176.5C196 186.333 190.5 206.2 188.5 207C186 208 179.5 211 176.5 202.5C178.167 199.667 181.5 193.1 181.5 189.5C181.5 185 181.5 179.5 188.5 176.5C190.5 174.667 194.7 169.9 195.5 165.5L198.5 176.5Z" stroke="black" stroke-width="10" stroke-linecap="round" stroke-linejoin="round"/>
<path d="M173.16 245.767C174.083 248.034 173.029 250.632 170.75 251.525C142.32 262.67 110.884 262.845 82.2693 251.919C52.2812 240.469 27.6342 217.684 13.3234 188.182C-0.987339 158.679 -3.89121 124.667 5.20033 93.0376C14.2919 61.4084 34.6987 34.5285 62.2849 17.8459C89.8711 1.16325 122.573 -4.07421 153.763 3.19501C184.953 10.4642 212.297 29.6963 230.254 56.9935C248.212 84.2906 255.438 117.611 250.469 150.201C245.737 181.242 230.278 209.409 207.033 229.55C205.127 231.201 202.238 230.84 200.717 228.828V228.828C199.26 226.901 199.604 224.171 201.43 222.588C223.036 203.852 237.405 177.659 241.805 148.795C246.428 118.473 239.705 87.4724 222.998 62.0753C206.29 36.6782 180.849 18.7849 151.83 12.0216C122.812 5.25842 92.386 10.1313 66.72 25.6527C41.054 41.1741 22.0676 66.1829 13.6089 95.6104C5.15025 125.038 7.85199 156.683 21.1666 184.132C34.4812 211.58 57.4126 232.78 85.3133 243.433C111.778 253.537 140.836 253.437 167.162 243.25C169.518 242.338 172.207 243.427 173.16 245.767V245.767Z" fill="black"/>
<circle cx="131" cy="66" r="5" fill="black"/>
<circle cx="187" cy="237" r="5" fill="black"/>
</svg>
