<svg width="188" height="219" viewBox="0 0 188 219" fill="none" xmlns="http://www.w3.org/2000/svg">
<path d="M5 110L29 62.5H51L77 59L68.5 78L74 96L103 100L135.5 90L140.5 108.5L158 136.5L154 153L140.5 181L106.5 195.5L87.5 211.5L51 213L30.5 199.5C24.6667 185.833 13 158.3 13 157.5C13 156.7 7.66667 125.5 5 110Z" fill="#C1E9C0"/>
<path d="M14 53.5L17 35.5L56.5 33.5L83 22C90.3333 24.6667 111.7 26.6 138.5 13C165.3 -0.600014 179.333 7.33332 183 13C171.833 23.5 150.8 44.8 156 46C161.2 47.2 172.5 83.8333 177.5 102L170.5 143L149.5 132L138.5 108.5L136 90H128L116 98.5L85.5 100.5L72 90V76L74 58L63.5 63.5H32L14 53.5Z" fill="#408558"/>
<path d="M29.8377 62.1216C21.2326 69.3518 -5.48853 105.503 9.45701 132.616M29.8377 62.1216C6.53029 58.9504 11.447 42.6429 17.1625 34.2874C17.4212 33.9092 17.9051 33.7717 18.3418 33.9102C21.3395 34.8604 29.179 36.3638 42.0658 36.3638C55.9301 36.3638 69.1846 26.7926 74.3844 21.737C74.5743 21.5523 74.8232 21.4514 75.088 21.4514H121.985C122.145 21.4514 122.305 21.4116 122.448 21.3383C151.37 6.41815 172.074 4.32522 179.073 5.15556C179.224 5.17349 179.366 5.23081 179.492 5.31628C187.356 10.6516 181.866 13.4843 164.348 33.6525C146.685 53.9876 157.555 33.6525 171.142 78.3896C181.804 113.498 175.906 134.082 171.402 140.399C171.237 140.63 170.978 140.764 170.694 140.78C161.922 141.304 155.222 138.017 150.157 132.616M29.8377 62.1216C32.6305 62.5016 35.3516 62.7373 37.9898 62.8509M9.45701 132.616C9.45731 146.625 12.447 176.811 24.4032 185.488M9.45701 132.616C15.3448 134.149 29.2942 133.584 37.9898 119.06M24.4032 185.488C25.7617 195.429 35.8158 215.041 65.1636 213.957C66.5596 213.905 67.9181 213.827 69.2398 213.724M24.4032 185.488C29.9831 182.324 42.4582 173.016 47.7186 161.086M110.001 193.622C123.587 194.526 153.479 178.997 158.914 138.869M110.001 193.622C105.653 177.354 113.624 159.799 118.153 153.055M110.001 193.622C107.412 199.647 95.7037 211.658 69.2398 213.724M37.9898 62.8509C54.5776 63.5649 67.8875 59.4479 75.1222 55.975C76.0687 55.5207 77.2444 56.6897 76.7655 57.6241C70.5891 69.673 64.8298 88.1869 74.6744 96.3163M37.9898 62.8509C33.4608 79.3278 27.1203 113.637 37.9898 119.06M37.9898 119.06C40.0367 120.081 42.3405 120.26 44.7833 119.812M74.6744 96.3163C76.9492 98.1947 80.057 99.5187 84.1853 100.08C87.5073 100.532 90.6783 100.8 93.6963 100.904M74.6744 96.3163C68.4251 104.304 55.3128 117.882 44.7833 119.812M93.6963 100.904C113.561 101.589 126.802 95.1819 132.887 87.5187C133.587 86.6372 135.827 87.2031 135.87 88.3278C136.416 102.453 139.999 121.785 150.157 132.616M93.6963 100.904C90.1969 115.411 87.098 142.772 97.9845 151.596M150.157 132.616C144.496 138.758 131.926 149.229 118.153 153.055M44.7833 119.812C42.1948 131.578 40.531 151.473 47.7186 161.086M97.9845 151.596C99.7783 153.05 101.952 154 104.566 154.307C109.092 154.839 113.685 154.296 118.153 153.055M97.9845 151.596C95.765 154.381 89.4764 159.328 78.7505 162.867M47.7186 161.086C50.5918 164.928 54.8794 167.128 61.0876 166.508C67.9389 165.825 73.8146 164.495 78.7505 162.867M78.7505 162.867C75.1274 166.184 68.1529 181.001 69.2398 213.724" stroke="black" stroke-width="10"/>
</svg>
