<svg width="220" height="255" viewBox="0 0 220 255" fill="none" xmlns="http://www.w3.org/2000/svg">
<path d="M126 249.5V185.5V183.5H191V249.5H126Z" fill="#F9DB99"/>
<path d="M126 159.5L127.5 154L129 147.5L135 140.5L142.5 139L149.5 134L158.5 130.5L164.5 133L172.5 140.5H183L189.5 149.5L192.5 160.5H171.5L170 196L164.5 203.5L155.5 206L147 198L146 160.5L126 159.5Z" fill="#FDF3DE"/>
<path d="M87 86.5V70L100.5 68.5L126 69.5L138.5 71.5L146.5 76.5L153.5 91.5L152.5 96.5L142.5 99L134 96.5L133 90.5L127.5 86.5H87Z" fill="#E8EAEF"/>
<rect x="27" y="7.5" width="56" height="18" fill="#FDF3DE"/>
<path d="M102 248.5H7.5V231L17.5 221H92.5L102 230.5V248.5Z" fill="#B5B3EA"/>
<rect x="25" y="161.5" width="58" height="57" fill="#8890AC"/>
<rect x="24" y="29.5" width="59" height="130" fill="#F9DB99"/>
<path d="M24.5 220.5H17.4142C17.149 220.5 16.8946 220.605 16.7071 220.793L5.29289 232.207C5.10536 232.395 5 232.649 5 232.914V249C5 249.552 5.44772 250 6 250H103C103.552 250 104 249.552 104 249V232.914C104 232.649 103.895 232.395 103.707 232.207L92.2929 220.793C92.1054 220.605 91.851 220.5 91.5858 220.5H84.5M24.5 220.5H84.5M24.5 220.5V160.5M24.5 115.5V160.5M84.5 220.5V160.5M24.5 73V27.5M24.5 160.5H84.5M84.5 160.5V88M24.5 27.5V6C24.5 5.44772 24.9477 5 25.5 5H83.5C84.0523 5 84.5 5.44772 84.5 6V27.5M24.5 27.5H84.5M84.5 27.5V68M84.5 88H128.5C131.261 88 133.5 90.2386 133.5 93V93.5C133.5 96.2614 135.739 98.5 138.5 98.5H149.417C152.211 98.5 154.48 96.2025 153.99 93.4524C152.089 82.793 144.471 68 124 68H119.5M84.5 88V68M84.5 68H119.5M119.5 68V47M119.5 47H103.5M119.5 47H135.5M192.5 160.5H170.5C169.948 160.5 169.5 160.948 169.5 161.5V183M192.5 160.5V171.75M192.5 160.5C192.5 153 186.2 139 175 139C167 139 169 130.5 158.5 130.5C148 130.5 149.5 139 141.5 139C130.3 139 125.167 153.333 124 160.5M124 160.5H145.5C146.052 160.5 146.5 160.948 146.5 161.5V183M124 160.5V183M146.5 183H124M146.5 183V197.5C147.333 200.333 150.7 206 157.5 206C164.3 206 168.333 200.333 169.5 197.5V183M124 183V249C124 249.552 124.448 250 125 250H191.5C192.052 250 192.5 249.552 192.5 249V215M169.5 183H192.5M192.5 183V171.75M192.5 183V215M192.5 171.75H205C210.523 171.75 215 176.227 215 181.75V205C215 210.523 210.523 215 205 215H192.5" stroke="black" stroke-width="10" stroke-linecap="round"/>
<circle cx="45.5" cy="53.5" r="5" fill="black"/>
<circle cx="63.5" cy="97.5" r="5" fill="black"/>
<circle cx="47.5" cy="134.5" r="5" fill="black"/>
<circle cx="24.5" cy="94.5" r="5" fill="black"/>
</svg>
